HIERARCHY
ROOT root
{
	OFFSET	0	13.1	24.9
	CHANNELS 6  Xposition Yposition Zposition Xrotation Yrotation Zrotation
	JOINT spine_1
	{
		OFFSET	0	9.99999	0
		CHANNELS 3  Xrotation Yrotation Zrotation
		JOINT spine_2
		{
			OFFSET	0	112	-10
			CHANNELS 3  Xrotation Yrotation Zrotation
			JOINT spine_3
			{
				OFFSET	0	206.5	19.3
				CHANNELS 3  Xrotation Yrotation Zrotation
				JOINT spine_4
				{
					OFFSET	0	110.4	14.6
					CHANNELS 3  Xrotation Yrotation Zrotation
					JOINT neck_1
					{
						OFFSET	0	71.8	-50.3
						CHANNELS 3  Xrotation Yrotation Zrotation
						JOINT neck_2
						{
							OFFSET	0	86.2	-25.8
							CHANNELS 3  Xrotation Yrotation Zrotation
							JOINT head_ee
							{
								OFFSET	0	179.8	-8.7
								CHANNELS 3  Xrotation Yrotation Zrotation
								End Site
								{
									OFFSET	1	0	0
								}
							}
						}
					}
					JOINT left_clavicle
					{
						OFFSET	-43.2	22.4	-70.8
						CHANNELS 3  Xrotation Yrotation Zrotation
						JOINT left_shoulder
						{
							OFFSET	-93.9	-5.79999	48.7
							CHANNELS 3  Xrotation Yrotation Zrotation
							JOINT left_elbow
							{
								OFFSET	-291.4	-30.8	15.2
								CHANNELS 3  Xrotation Yrotation Zrotation
								JOINT left_lowarm_twist
								{
									OFFSET	-110.7	-3.89999	13.6
									CHANNELS 3  Xrotation Yrotation Zrotation
									JOINT left_hand
									{
										OFFSET	-110.7	-3.89999	13.6
										CHANNELS 3  Xrotation Yrotation Zrotation
										JOINT left_ee
										{
											OFFSET	-80.8	-5.10001	12.1
											CHANNELS 3  Xrotation Yrotation Zrotation
											End Site
											{
												OFFSET	1	0	0
											}
										}
									}
								}
							}
						}
					}
					JOINT right_clavicle
					{
						OFFSET	43.2	22.4	-70.8
						CHANNELS 3  Xrotation Yrotation Zrotation
						JOINT right_shoulder
						{
							OFFSET	93.9	-5.79999	48.7
							CHANNELS 3  Xrotation Yrotation Zrotation
							JOINT right_elbow
							{
								OFFSET	291.4	-30.8	15.2
								CHANNELS 3  Xrotation Yrotation Zrotation
								JOINT right_lowarm_twist
								{
									OFFSET	110.7	-3.89999	13.6
									CHANNELS 3  Xrotation Yrotation Zrotation
									JOINT right_hand
									{
										OFFSET	110.7	-3.89999	13.6
										CHANNELS 3  Xrotation Yrotation Zrotation
										JOINT right_ee
										{
											OFFSET	80.8	-5.10001	12.1
											CHANNELS 3  Xrotation Yrotation Zrotation
											End Site
											{
												OFFSET	1	0	0
											}
										}
									}
								}
							}
						}
					}
				}
			}
		}
	}
	JOINT left_hip
	{
		OFFSET	-82.8	-127.5	0.300001
		CHANNELS 3  Xrotation Yrotation Zrotation
		JOINT left_knee
		{
			OFFSET	-28.2	-396.7	2.2
			CHANNELS 3  Xrotation Yrotation Zrotation
			JOINT left_ankle
			{
				OFFSET	-11.7	-411.3	35.4
				CHANNELS 3  Xrotation Yrotation Zrotation
				JOINT left_toes
				{
					OFFSET	0	-60	-88.6
					CHANNELS 3  Xrotation Yrotation Zrotation
					JOINT left_foot_ee
					{
						OFFSET	-22.5	-16.5	-42.2
						CHANNELS 3  Xrotation Yrotation Zrotation
						End Site
						{
							OFFSET	1	0	0
						}
					}
				}
			}
		}
	}
	JOINT right_hip
	{
		OFFSET	82.8	-127.5	0.300001
		CHANNELS 3  Xrotation Yrotation Zrotation
		JOINT right_knee
		{
			OFFSET	28.2	-396.7	2.2
			CHANNELS 3  Xrotation Yrotation Zrotation
			JOINT right_ankle
			{
				OFFSET	11.7	-411.3	35.4
				CHANNELS 3  Xrotation Yrotation Zrotation
				JOINT right_toes
				{
					OFFSET	0	-60	-88.6
					CHANNELS 3  Xrotation Yrotation Zrotation
					JOINT right_foot_ee
					{
						OFFSET	22.5	-16.5	-42.2
						CHANNELS 3  Xrotation Yrotation Zrotation
						End Site
						{
							OFFSET	1	0	0
						}
					}
				}
			}
		}
	}
}
MOTION
Frames: 16
Frame Time: 0.02
3345.9 665.581 -1549.16 -14.0942 76.4235 12.1201 1.48742 1.00935 2.56529 1.49068 0.844129 2.62426 1.53027 0.347461 2.73463 1.52067 0.774833 2.64554 -11.5448 7.3813 -2.9644 -11.6407 15.8994 -0.816291 -0.0 0.0 -0.0 0.512774 24.2627 3.49083 -24.6688 -4.55777 70.8586 0.281036 -7.92579 0.0194691 -47.6002 -3.79325 4.55154 -0.230969 27.818 9.64936 -0.0 0.0 -0.0 12.3648 4.82926 -24.9658 18.211 46.4744 -77.3213 0.653918 17.9489 -0.103272 -68.4936 6.35394 -5.2862 -4.06687 13.418 35.1165 0.0 0.0 0.0 23.4263 -4.83271 -6.15046 0.61568 -0.025842 -0.0909453 1.89953 -2.67815 -0.281865 -28.8963 0.0 0.0 -0.0 0.0 -0.0 -6.42071 -42.8731 12.0398 -1.22503 -0.0484991 -0.181739 34.6455 29.1959 5.30606 -6.90739 0.0 0.0 0.0 0.0 0.0 
3328.55 666.126 -1546.44 -12.6126 75.7131 11.1585 1.42153 0.960153 2.42287 1.42443 0.804083 2.47901 1.46012 0.331572 2.58491 1.45155 0.735523 2.5002 -10.5647 8.97795 -4.28666 -10.6553 19.7842 -1.81596 -0.0 0.0 -0.0 1.06253 23.6551 4.18365 -23.8579 -4.73007 70.2749 0.316405 -8.90814 0.0246466 -47.399 -3.77015 4.54 -0.0585848 26.6678 10.1948 -0.0 0.0 -0.0 12.3423 5.57245 -24.9482 17.7786 46.3753 -77.8615 0.65754 18.0419 -0.104392 -66.6128 6.11472 -5.25902 -3.95296 10.8183 33.0012 0.0 0.0 0.0 23.479 -4.86829 -6.46475 -3.31787 0.122318 0.494427 5.0208 0.474341 -0.731669 -28.3173 0.0 0.0 -0.0 0.0 -0.0 -6.43622 -43.2595 12.6546 -2.62885 -0.0992778 -0.391193 32.7814 27.7067 5.00522 -6.67879 0.0 0.0 0.0 0.0 0.0 
3305.87 666.547 -1543.56 -12.3872 75.2785 11.0791 1.39429 0.826415 2.52806 1.3976 0.663929 2.57548 1.42831 0.174367 2.65391 1.41897 0.591173 2.59314 -9.10952 10.0665 -2.52479 -9.18038 20.619 -0.0811773 -0.0 0.0 -0.0 1.17347 23.3652 4.31341 -23.7046 -4.84112 69.9076 0.40643 -11.3836 0.0405086 -47.7254 -3.80764 4.55868 -0.0472294 27.2245 10.4578 -0.0 0.0 -0.0 12.2163 5.75777 -24.6745 18.008 46.5412 -78.4892 0.677245 18.546 -0.110577 -64.5758 5.85668 -5.22069 -3.61886 9.18308 29.6025 0.0 0.0 0.0 24.4745 -3.78391 -7.35616 -7.38437 0.232858 1.10858 6.1012 0.0665591 -0.887009 -27.4803 0.0 0.0 -0.0 0.0 -0.0 -5.11559 -42.8914 14.1714 -6.36998 -0.209371 -0.954682 33.0429 25.4138 4.91021 -5.60711 0.0 0.0 0.0 0.0 0.0 
3285.19 663.269 -1537.21 -13.5873 75.53 12.2804 1.42811 0.701416 2.51974 1.43148 0.539711 2.55923 1.45632 0.0564722 2.61487 1.44708 0.468595 2.57319 -8.62081 10.9511 -3.85345 -8.65672 23.1735 -1.27647 -0.0 0.0 -0.0 1.66281 23.9193 5.0192 -24.6457 -6.07191 68.823 0.539494 -14.9628 0.070848 -48.5286 -3.90035 4.60374 -0.3305 28.5165 9.35791 -0.0 0.0 -0.0 11.843 6.22618 -23.8606 18.2888 46.3244 -79.5465 0.645872 17.742 -0.100807 -63.3704 5.70464 -5.19368 -3.59391 7.14624 28.4307 0.0 0.0 0.0 23.6427 -2.47651 -6.60418 -7.39883 0.233173 1.11077 8.90944 -1.47548 -1.28849 -26.7047 0.0 0.0 -0.0 0.0 -0.0 -4.46189 -42.2851 15.2702 -8.3251 -0.2522 -1.25164 33.0088 21.353 4.71746 -5.27954 0.0 0.0 0.0 0.0 0.0 
3254.96 665.985 -1530.44 -13.6908 76.8331 12.4429 1.4669 0.516261 2.52045 1.47036 0.354885 2.54817 1.48669 -0.121933 2.56986 1.47759 0.285322 2.55689 -6.82414 11.6203 -3.84231 -6.74219 24.3438 -1.5157 -0.0 0.0 -0.0 1.83976 24.6924 5.30143 -24.5001 -7.81791 67.1707 0.63008 -17.3345 0.0960478 -49.4324 -4.00541 4.65289 -0.334213 27.9994 9.14581 -0.0 0.0 -0.0 11.6389 6.36718 -23.4128 16.1954 46.0186 -79.0583 0.640386 17.6006 -0.0991415 -61.2342 5.43664 -5.13794 -3.60237 5.1572 27.5124 0.0 0.0 0.0 22.0148 -1.94438 -4.92634 -8.07456 0.247278 1.21351 9.41713 0.3765 -1.35294 -28.3401 0.0 0.0 -0.0 0.0 -0.0 -4.45445 -41.4496 16.0168 -11.2786 -0.297621 -1.70251 32.2363 15.6627 4.43009 -7.10808 0.0 0.0 0.0 0.0 0.0 
3219.49 669.355 -1521.84 -12.7222 78.4912 11.0344 1.62715 0.424324 2.51251 1.63062 0.263639 2.5344 1.6426 -0.202239 2.54004 1.63365 0.201318 2.54011 -4.18548 12.9574 -2.97222 -3.91371 25.9868 -0.994034 -0.0 0.0 -0.0 2.11876 24.9311 5.68539 -24.5995 -8.86764 65.6365 0.755229 -20.5117 0.136649 -50.5505 -4.13644 4.71138 -0.529186 28.3372 8.20246 -0.0 0.0 -0.0 11.098 4.68255 -22.1765 11.9436 45.0125 -78.5396 0.694275 18.9793 -0.116055 -55.8891 4.77638 -4.95492 -3.92402 3.92881 29.35 0.0 0.0 0.0 19.3672 -2.26847 -2.54366 -8.9107 0.263052 1.34084 18.886 0.996189 -2.60697 -26.6289 0.0 0.0 -0.0 0.0 -0.0 -7.83117 -36.4246 15.4208 -15.0692 -0.321773 -2.28351 30.0341 11.524 4.08291 -6.86635 0.0 0.0 0.0 0.0 0.0 
3191.44 667.246 -1519.05 -10.5483 80.092 8.2471 1.58901 0.281018 2.56566 1.59267 0.117244 2.57834 1.59819 -0.35632 2.5563 1.58907 0.0517328 2.58048 -2.83157 13.8939 -3.39741 -2.38377 27.8863 -1.63676 -0.0 0.0 -0.0 2.20508 24.5509 5.78425 -25.4035 -10.2496 64.5858 0.821621 -22.1465 0.1608 -51.2006 -4.21313 4.74422 -0.629299 27.5151 7.33386 -0.0 0.0 -0.0 11.1283 6.03083 -22.2813 9.45154 44.4963 -78.1177 0.645008 17.7197 -0.100544 -54.1929 4.57067 -4.88403 -3.87692 2.64313 28.3136 0.0 0.0 0.0 16.7315 -0.163224 -0.639138 -8.7233 0.259678 1.31229 23.243 1.37576 -3.13862 -25.7059 0.0 0.0 -0.0 0.0 -0.0 -9.80931 -30.2762 15.0405 -18.6458 -0.309295 -2.83204 29.1266 2.25054 3.83569 -7.52356 0.0 0.0 0.0 0.0 0.0 
3163.18 665.264 -1514.63 -5.67264 80.5147 2.32849 1.56801 0.239681 2.68276 1.57201 0.0685476 2.69257 1.57548 -0.426219 2.65953 1.56561 -0.00100529 2.69344 -4.15446 14.8467 -1.44908 -3.87255 28.3066 0.872899 -0.0 0.0 -0.0 2.17604 24.3291 5.73554 -25.6191 -11.7159 64.1062 1.06966 -27.9173 0.265883 -51.3972 -4.2364 4.75398 -0.656504 26.3264 6.71378 -0.0 0.0 -0.0 10.4601 1.42554 -20.6819 6.77671 43.5609 -79.1307 0.825291 22.2358 -0.162186 -50.6625 4.14963 -4.71711 -4.18056 2.19741 30.4197 0.0 0.0 0.0 13.5435 0.354838 1.62948 -8.83561 0.261711 1.3294 29.8867 1.53045 -3.88849 -24.2173 0.0 0.0 -0.0 0.0 -0.0 -11.1284 -22.0879 15.7483 -24.7366 -0.209427 -3.76087 25.0694 -10.0521 3.34462 -8.23319 0.0 0.0 0.0 0.0 0.0 
3139.91 663.564 -1512.59 2.36174 81.6812 -6.02117 1.47807 -0.0142417 2.74179 1.48224 -0.188613 2.73533 1.47336 -0.691874 2.65316 1.46363 -0.264339 2.72906 -5.18619 15.5551 0.3021 -5.02171 28.4574 3.04625 -0.0 0.0 -0.0 2.10624 23.5169 5.60343 -24.2396 -12.576 63.6724 1.30504 -32.8803 0.385103 -51.64 -4.26517 4.76591 -0.746439 26.2595 6.18467 -0.0 0.0 -0.0 10.2056 0.960168 -20.1273 3.24212 42.794 -77.7777 0.884813 23.6681 -0.185399 -48.4716 3.89375 -4.60059 -4.33982 1.43213 31.2453 0.0 0.0 0.0 10.7057 0.637544 2.93693 -8.67575 0.258807 1.30504 34.6449 1.28334 -4.37622 -23.0474 0.0 0.0 -0.0 0.0 -0.0 -13.8922 -12.6408 12.532 -29.2909 -0.070573 -4.44584 24.1508 -17.4871 3.28915 -8.67658 0.0 0.0 0.0 0.0 0.0 
3124.38 667.783 -1508.18 3.84654 80.7767 -8.27171 1.38313 0.203043 2.79638 1.38748 0.0247621 2.80363 1.38913 -0.498682 2.75907 1.37851 -0.056859 2.80316 -6.18856 15.5913 1.33889 -6.12184 27.9259 4.34695 -0.0 0.0 -0.0 2.08162 22.0105 5.49527 -21.8008 -13.7176 63.693 1.52016 -36.9789 0.508354 -50.5874 -4.14078 4.71327 -0.495014 25.7579 7.39664 -0.0 0.0 -0.0 10.1912 -5.08364 -19.705 1.99674 41.6741 -79.0633 0.907097 24.1964 -0.194439 -45.1753 3.5176 -4.40709 -4.44888 -1.57495 30.3764 0.0 0.0 0.0 8.5275 0.931581 3.83956 -7.89312 0.24361 1.18591 35.2988 1.34901 -4.43912 -23.4511 0.0 0.0 -0.0 0.0 -0.0 -13.95 -6.07132 12.0487 -32.1183 0.0428843 -4.86487 19.4885 -28.5832 2.86419 -9.81929 0.0 0.0 0.0 0.0 0.0 
3106.52 671.053 -1503.31 14.1417 83.2798 -19.4089 1.28021 -0.360664 2.95741 1.28491 -0.54804 2.92851 1.25691 -1.09182 2.7722 1.24676 -0.640496 2.9097 -7.97189 16.141 3.31365 -8.04326 27.8568 6.8548 -0.0 0.0 -0.0 2.29854 20.2194 5.72031 -18.3207 -14.8212 63.1687 1.83012 -42.191 0.706069 -51.2711 -4.22147 4.74772 -0.76976 25.2318 5.63751 -0.0 0.0 -0.0 9.48394 -5.87313 -18.255 -1.31401 42.8391 -78.4882 0.964866 25.5458 -0.218737 -44.4875 3.44055 -4.36401 -4.61126 -1.44462 31.7227 0.0 0.0 0.0 5.92731 1.53395 6.08882 -7.14112 0.227474 1.07164 36.3653 -0.0596705 -4.54964 -20.9485 0.0 0.0 -0.0 0.0 -0.0 -13.5076 2.24844 8.08953 -38.4656 0.372047 -5.78228 16.6767 -30.1439 2.50474 -10.9842 0.0 0.0 0.0 0.0 0.0 
3094.7 678.288 -1504.9 13.7624 80.8158 -18.4645 1.10275 0.223788 2.90393 1.10744 0.0386297 2.91228 1.11022 -0.51931 2.8659 1.09877 -0.0603763 2.91191 -8.84308 15.992 2.01244 -9.01702 28.626 5.77531 -0.0 0.0 -0.0 2.3607 18.4582 5.72816 -16.1669 -16.0877 62.4946 2.01757 -44.979 0.835345 -50.998 -4.18919 4.73408 -0.598319 23.6367 5.97056 -0.0 0.0 -0.0 10.2441 -8.93622 -19.4354 -2.67957 39.7053 -77.4874 0.880221 23.5587 -0.18356 -43.1491 3.29213 -4.27755 -4.67984 -4.10899 30.6421 0.0 0.0 0.0 3.81752 2.84857 5.03438 -6.63508 0.215772 0.994861 35.061 -1.39908 -4.43685 -18.8121 0.0 0.0 -0.0 0.0 -0.0 -12.0987 6.81031 6.29833 -40.6464 0.508405 -6.08853 14.3517 -28.3321 2.14626 -13.6412 0.0 0.0 0.0 0.0 0.0 
3075.69 682.017 -1506.05 18.7536 79.3379 -22.8409 0.886362 0.452438 2.61673 0.890127 0.285072 2.64019 0.904395 -0.234542 2.64515 0.89468 0.186003 2.64901 -9.64928 16.19 1.9679 -9.91089 29.1529 6.00146 -0.0 0.0 -0.0 2.25297 17.087 5.49215 -14.0291 -17.4786 61.8329 2.1231 -46.4383 0.910888 -50.4515 -4.12479 4.70631 -0.359072 22.2973 6.82829 -0.0 0.0 -0.0 10.6423 -12.0375 -19.7981 -5.00695 37.1574 -76.0285 0.806439 21.7759 -0.155122 -41.7262 3.13658 -4.18186 -4.6327 -6.40625 28.8525 0.0 0.0 0.0 -0.0746673 4.13317 4.78002 -5.58158 0.189237 0.835368 32.1657 -2.08275 -4.15512 -18.23 0.0 0.0 -0.0 0.0 -0.0 -9.16465 11.2532 5.70373 -45.3483 0.841594 -6.73018 11.6507 -27.075 1.7442 -15.9851 0.0 0.0 0.0 0.0 0.0 
3063.98 683.233 -1509.02 20.5133 77.7322 -23.7051 0.773238 0.588713 2.38593 0.7763 0.435743 2.41853 0.795894 -0.0480766 2.45698 0.787632 0.340443 2.43376 -10.1877 16.3261 1.88643 -10.5136 29.5438 6.11119 -0.0 0.0 -0.0 2.53669 15.339 5.84867 -10.4873 -17.7474 61.2748 2.02777 -45.1234 0.842564 -50.5046 -4.13104 4.70903 -0.292402 21.6998 6.9865 -0.0 0.0 -0.0 10.8243 -13.8516 -19.8646 -6.27571 35.6945 -75.2067 0.752643 20.4473 -0.135745 -40.8095 3.03766 -4.11819 -4.63722 -7.73071 28.0508 0.0 0.0 0.0 -2.80281 6.92292 3.84177 -3.64519 0.132826 0.543561 29.2337 -1.86329 -3.84355 -17.1941 0.0 0.0 -0.0 0.0 -0.0 -7.51664 14.3334 3.67498 -47.5181 1.01295 -7.01677 12.8791 -23.8107 1.88567 -17.2675 0.0 0.0 0.0 0.0 0.0 
3042.54 697.508 -1509.01 27.3191 75.9495 -30.0828 0.198438 0.60091 2.43553 0.201628 0.444762 2.4688 0.222593 -0.0742178 2.50742 0.213965 0.322589 2.4877 -10.7682 17.1957 1.93297 -11.2081 31.2458 6.58368 -0.0 0.0 -0.0 3.08087 14.3489 6.68369 -8.82575 -18.2749 60.1188 1.66599 -39.529 0.598664 -50.3818 -4.1166 4.70272 -0.291576 18.9665 5.91786 -0.0 0.0 -0.0 10.7277 -13.5997 -19.7284 -8.5468 34.6895 -73.9272 0.706434 19.2874 -0.12004 -39.1228 2.85836 -3.99695 -4.29709 -7.149 25.9068 0.0 0.0 0.0 -8.02091 8.67968 3.70684 -0.702245 0.028278 0.104057 25.887 -1.95405 -3.47095 -16.5875 0.0 0.0 -0.0 0.0 -0.0 -3.77052 16.0677 2.4987 -49.7261 1.1984 -7.30166 9.09073 -19.2458 1.32176 -19.0315 0.0 0.0 0.0 0.0 0.0 
3029.07 701.035 -1508.78 25.4279 74.0002 -27.5575 -0.178634 0.559228 2.30258 -0.175779 0.411617 2.33347 -0.157091 -0.0944442 2.3676 -0.164804 0.280553 2.35282 -9.76279 18.0063 1.7503 -10.126 32.7518 6.33492 -0.0 0.0 -0.0 3.14999 13.2449 6.75505 -7.1946 -18.4504 59.3972 1.4982 -36.5791 0.495205 -49.0809 -3.96446 4.63397 -0.0652886 16.5536 6.34611 -0.0 0.0 -0.0 10.841 -15.7623 -19.5868 -8.77311 34.131 -73.5574 0.660513 18.1181 -0.105314 -38.0559 2.74682 -3.91757 -4.25092 -8.57953 24.7029 0.0 0.0 0.0 -10.7437 9.63617 3.56642 2.62323 -0.116879 -0.385514 22.3325 -1.34707 -3.04708 -16.9594 0.0 0.0 -0.0 0.0 -0.0 -0.413701 17.6485 2.08112 -51.2597 1.33364 -7.49528 4.60061 -14.8088 0.669634 -20.4666 0.0 0.0 0.0 0.0 0.0 
